<?xml version="1.0" ?><svg data-name="Layer 1" id="Layer_1" viewBox="0 0 64 64" xmlns="http://www.w3.org/2000/svg"><title/><desc/><rect height="4" rx="2" ry="2" style="fill:#79bd9a" width="22" x="21.06" y="15.02"/><path d="M39.06,59h-4a18,18,0,0,1-18-18v-.58a24,24,0,0,1,6.41-16.33h0A6.57,6.57,0,0,1,28.28,22H41.85l-2.79-3h-14l-6.59,7.09a24,24,0,0,0-6.41,16.33V43a18,18,0,0,0,18,18h4a17.93,17.93,0,0,0,9.11-2.47A18,18,0,0,1,39.06,59Z" style="fill:#cff09e"/><polygon points="32.06 34.02 34.34 38.63 39.42 39.37 35.74 42.95 36.61 48.02 32.06 45.63 27.51 48.02 28.38 42.95 24.7 39.37 29.79 38.63 32.06 34.02" style="fill:#a8dba8"/><path d="M38.06,13h-6a6,6,0,0,1-6-6V4a3,3,0,0,1,.17-1h-.17a3,3,0,0,0-3,3V9a6,6,0,0,0,6,6h6a6,6,0,0,0,4.67-2.24A5.76,5.76,0,0,1,38.06,13Z" style="fill:#cff09e"/><path d="M36.82,43.3l3.3-3.22a1,1,0,0,0-.55-1.7L35,37.71l-2-4.13a1,1,0,0,0-1.79,0l-2.05,4.13-4.56.67a1,1,0,0,0-.56,1.7l3.31,3.22-.78,4.55a1,1,0,0,0,1.45,1l4.08-2.14,4.08,2.14a1,1,0,0,0,.47.12,1.06,1.06,0,0,0,.59-.19,1,1,0,0,0,.4-1ZM35,42.24a1,1,0,0,0-.28.88l.52,3.07-2.75-1.45a1,1,0,0,0-.47-.11.92.92,0,0,0-.46.11l-2.76,1.45.53-3.07a1,1,0,0,0-.29-.88l-2.23-2.18,3.08-.44a1,1,0,0,0,.75-.55l1.38-2.79,1.38,2.79a1,1,0,0,0,.75.55l3.08.44Z" style="fill:#3b8686"/><path d="M21,47.88l-.87.5-.5-.86a1,1,0,1,0-1.73,1l.5.86-.87.5a1,1,0,0,0,.5,1.87,1,1,0,0,0,.5-.13l.87-.5.5.86a1,1,0,0,0,1.36.37A1,1,0,0,0,21.66,51l-.5-.86.87-.5a1,1,0,0,0-1-1.74Z" style="fill:#3b8686"/><path d="M44.76,43l-.7.71L43.35,43a1,1,0,0,0-1.42,0,1,1,0,0,0,0,1.41l.71.71-.71.71a1,1,0,1,0,1.42,1.41l.71-.7.7.7a1,1,0,0,0,1.42-1.41l-.71-.71.71-.71a1,1,0,0,0,0-1.41A1,1,0,0,0,44.76,43Z" style="fill:#3b8686"/><path d="M17.8,40a1,1,0,0,0,1.23-.7,1,1,0,0,0-.71-1.23,1,1,0,0,0-1.22.71A1,1,0,0,0,17.8,40Z" style="fill:#3b8686"/><circle cx="44.79" cy="37.41" r="1" style="fill:#3b8686"/><circle cx="32.06" cy="29.02" r="1" style="fill:#3b8686"/><path d="M23.93,33a1,1,0,0,0,1.36.37A1,1,0,0,0,25.66,32l-.5-.86.87-.5a1,1,0,0,0-1-1.74l-.87.5-.5-.86a1,1,0,1,0-1.73,1l.5.86-.87.5a1,1,0,0,0,.5,1.87,1,1,0,0,0,.5-.13l.87-.5Z" style="fill:#3b8686"/><path d="M35.29,54.35l-1-.26.26-1a1,1,0,0,0-.71-1.22,1,1,0,0,0-1.22.7l-.26,1-1-.26a1,1,0,0,0-.52,1.93l1,.26-.26,1a1,1,0,0,0,.71,1.22,1.17,1.17,0,0,0,.26,0,1,1,0,0,0,1-.75l.26-1,1,.26a1.09,1.09,0,0,0,.26,0,1,1,0,0,0,.25-2Z" style="fill:#3b8686"/><circle cx="41.06" cy="53.02" r="1" style="fill:#3b8686"/><circle cx="25.06" cy="56.02" r="1" style="fill:#3b8686"/><circle cx="38.06" cy="24.02" r="1" style="fill:#3b8686"/><path d="M39.06,29a1,1,0,0,0,0,2h1v1a1,1,0,1,0,2,0V31h1a1,1,0,0,0,0-2h-1V28a1,1,0,1,0-2,0v1Z" style="fill:#3b8686"/><path d="M46.38,25.43l-5-5.43a3,3,0,0,0-.28-6H40a7,7,0,0,0,2.11-5V6a4,4,0,0,0-7-2.64,4,4,0,0,0-6,0,4,4,0,0,0-3-1.36,4,4,0,0,0-4,4V9a7,7,0,0,0,2.11,5H23.06a3,3,0,0,0-.28,6l-5,5.43a24.91,24.91,0,0,0-6.68,17V43a19,19,0,0,0,19,19h4a19,19,0,0,0,19-19v-.58A24.91,24.91,0,0,0,46.38,25.43ZM24.06,9V6a2,2,0,0,1,4,0V8a1,1,0,0,0,2,0V6a2,2,0,0,1,4,0V8a1,1,0,0,0,2,0V6a2,2,0,1,1,4,0V9a5,5,0,0,1-5,5h-6A5,5,0,0,1,24.06,9Zm-2,8a1,1,0,0,1,1-1h18a1,1,0,0,1,0,2h-18A1,1,0,0,1,22.06,17Zm29,26a17,17,0,0,1-17,17h-4a17,17,0,0,1-17-17v-.58a22.91,22.91,0,0,1,6.15-15.65L25.5,20H38.63l6.29,6.77a23,23,0,0,1,6.14,15.65Z" style="fill:#3b8686"/></svg>